<?xml version="1.0" standalone="no"?>
<!DOCTYPE svg PUBLIC "-//W3C//DTD SVG 20010904//EN"
 "http://www.w3.org/TR/2001/REC-SVG-20010904/DTD/svg10.dtd">
<svg version="1.0" xmlns="http://www.w3.org/2000/svg"
 width="300.000000pt" height="200.000000pt" viewBox="0 0 300.000000 300.000000"
 preserveAspectRatio="xMidYMid meet">
<metadata>
Created by potrace 1.10, written by Peter Selinger 2001-2011
</metadata>
<g transform="translate(0.000000,300.000000) scale(0.100000,-0.100000)"
fill="#000000" stroke="none">
<path d="M1126 2624 c-225 -54 -411 -240 -471 -469 -21 -77 -21 -232 0 -310
52 -204 201 -372 392 -445 40 -15 47 -23 67 -72 101 -249 327 -401 596 -401
255 0 473 138 581 368 42 90 59 168 59 275 0 185 -55 316 -190 450 -80 80
-133 115 -230 153 -29 11 -38 23 -53 64 -63 176 -256 342 -449 388 -78 18
-224 18 -302 -1z m299 -79 c92 -24 174 -73 250 -150 77 -76 126 -158 150 -250
20 -78 19 -226 -1 -296 -55 -189 -204 -338 -393 -393 -75 -22 -78 -21 -85 22
-4 20 -9 44 -12 53 -4 13 5 18 39 23 105 16 222 97 289 200 128 198 78 471
-111 610 -276 203 -664 45 -721 -295 -28 -168 57 -362 198 -449 39 -24 40 -27
44 -88 1 -34 1 -62 -1 -62 -3 0 -34 18 -70 39 -329 196 -383 638 -110 896 73
69 156 116 242 140 70 19 219 19 292 0z m-21 -191 c54 -19 136 -76 165 -115
12 -17 21 -32 19 -33 -1 -1 -34 -12 -73 -24 -198 -62 -369 -240 -424 -443
l-17 -61 -52 50 c-94 91 -136 221 -112 339 48 230 277 363 494 287z m246 -165
c12 -23 20 -43 18 -45 -3 -3 -56 12 -76 22 -3 1 31 64 35 64 2 0 12 -18 23
-41z m253 -45 l28 -25 -23 -19 c-27 -22 -33 -17 -42 33 -8 44 -1 46 37 11z
m-256 -66 l8 -53 -73 -21 c-331 -96 -437 -510 -193 -754 194 -195 509 -176
680 40 158 200 111 515 -99 651 -48 31 -48 32 -52 90 -2 35 1 59 7 59 27 0
127 -70 185 -129 110 -110 160 -235 160 -393 0 -154 -50 -279 -157 -390 -151
-155 -376 -212 -576 -144 -101 34 -168 77 -240 155 -102 111 -147 229 -147
386 0 158 50 277 164 391 73 73 139 114 236 145 84 27 87 27 97 -33z m47 -102
c-2 -48 -10 -55 -36 -29 -20 21 -20 23 -4 48 23 35 41 26 40 -19z m235 -48
c23 -29 24 -30 4 -24 -12 4 -24 2 -28 -4 -13 -22 -25 -8 -25 30 0 46 12 45 49
-2z m-284 -15 c-21 -87 -82 -176 -150 -221 -48 -32 -142 -68 -152 -59 -10 11
27 102 62 153 40 57 105 108 174 135 65 26 75 25 66 -8z m367 -124 c47 -64 70
-133 70 -219 0 -194 -135 -344 -337 -375 -95 -14 -226 36 -307 116 l-52 52 55
14 c95 24 189 75 279 150 71 59 159 209 181 310 l12 52 31 -26 c17 -14 47 -47
68 -74z m-899 -152 c-7 -43 -16 -46 -39 -12 -17 26 -12 45 12 45 8 0 14 5 14
12 0 8 3 9 10 2 5 -5 7 -26 3 -47z m221 -22 l24 -16 -27 -27 c-28 -29 -41 -24
-41 19 0 23 7 39 17 39 2 0 14 -7 27 -15z m-210 -188 l7 -38 -30 22 c-36 26
-37 32 -14 59 20 23 27 15 37 -43z m246 -19 c0 -5 7 -8 15 -8 14 0 13 -3 -2
-25 -24 -33 -31 -31 -49 10 -20 48 -18 55 11 42 14 -7 25 -15 25 -19z"/>
<path d="M407 753 c-4 -3 -7 -55 -7 -115 0 -89 3 -108 15 -108 12 0 15 19 15
115 0 105 -5 127 -23 108z"/>
<path d="M1021 744 c-25 -18 -51 -71 -51 -105 0 -60 49 -109 109 -109 35 0 81
35 81 61 0 27 -13 24 -38 -11 -26 -35 -59 -39 -90 -10 -43 41 -37 123 12 155
30 20 61 12 82 -21 17 -24 44 -33 44 -13 0 6 -13 24 -29 40 -34 34 -83 39
-120 13z"/>
<path d="M2314 749 c-10 -17 13 -36 27 -22 12 12 4 33 -11 33 -5 0 -12 -5 -16
-11z"/>
<path d="M2400 720 c0 -12 -7 -20 -17 -20 -17 -1 -17 -1 -1 -14 13 -9 18 -31
20 -82 3 -67 4 -69 31 -72 29 -4 37 12 12 22 -11 4 -15 21 -15 66 0 47 3 60
15 60 8 0 15 5 15 10 0 6 -7 10 -15 10 -8 0 -15 9 -15 20 0 11 -7 20 -15 20
-8 0 -15 -9 -15 -20z"/>
<path d="M487 703 c-4 -3 -7 -44 -7 -90 0 -67 3 -83 15 -83 12 0 15 13 15 60
0 47 4 64 20 80 24 24 34 25 54 4 11 -11 16 -35 16 -80 0 -52 3 -64 16 -64 25
0 16 146 -11 166 -25 19 -60 18 -79 -2 -15 -14 -16 -14 -16 0 0 17 -12 21 -23
9z"/>
<path d="M685 685 c-33 -32 -35 -101 -5 -133 28 -30 80 -29 108 1 12 13 22 26
22 30 0 14 -26 6 -43 -13 -34 -40 -77 -12 -77 50 0 30 5 43 24 55 27 18 53 11
61 -16 7 -22 35 -26 35 -5 0 21 -48 56 -77 56 -13 0 -35 -11 -48 -25z"/>
<path d="M1234 698 c-48 -23 -59 -104 -19 -143 40 -41 105 -33 130 16 44 84
-29 167 -111 127z m69 -21 c10 -6 20 -28 23 -48 5 -29 2 -41 -15 -58 -11 -11
-28 -21 -36 -21 -25 0 -55 38 -55 70 0 31 30 70 53 70 7 0 21 -6 30 -13z"/>
<path d="M1390 620 c0 -73 3 -90 15 -90 12 0 15 14 15 64 0 45 5 69 16 80 35
35 54 8 54 -76 0 -54 3 -68 15 -68 12 0 15 14 15 64 0 74 17 103 51 86 16 -9
19 -22 19 -80 0 -56 3 -70 15 -70 24 0 21 141 -3 163 -23 21 -56 22 -72 2 -12
-14 -15 -14 -30 0 -19 18 -51 20 -67 4 -8 -8 -13 -8 -17 0 -18 28 -26 3 -26
-79z"/>
<path d="M1667 703 c-4 -3 -7 -44 -7 -90 0 -67 3 -83 15 -83 12 0 15 13 15 59
0 67 22 107 53 96 14 -6 17 -20 17 -81 0 -59 3 -74 15 -74 12 0 15 13 15 59 0
67 22 107 53 96 14 -6 17 -20 17 -81 0 -59 3 -74 15 -74 22 0 21 142 -1 164
-20 20 -58 21 -74 1 -12 -14 -15 -14 -30 0 -19 17 -56 20 -65 5 -5 -8 -11 -8
-19 -1 -7 6 -16 8 -19 4z"/>
<path d="M1939 703 c0 -4 0 -39 1 -78 1 -52 5 -73 17 -82 21 -16 65 -17 81 -1
9 9 12 9 12 0 0 -7 7 -12 15 -12 12 0 15 17 15 90 0 73 -3 90 -15 90 -12 0
-15 -14 -15 -64 0 -82 -26 -114 -70 -86 -11 7 -15 28 -15 76 -1 44 -5 69 -13
72 -7 2 -12 0 -13 -5z"/>
<path d="M2130 621 c0 -74 3 -91 15 -91 12 0 15 14 15 64 0 55 3 67 22 80 15
11 26 12 40 5 15 -8 18 -22 18 -79 0 -56 3 -70 15 -70 24 0 21 141 -3 163 -24
22 -60 22 -84 0 -13 -12 -18 -13 -16 -4 2 7 -3 16 -9 18 -10 4 -13 -18 -13
-86z"/>
<path d="M2477 703 c-3 -4 10 -46 29 -92 25 -64 31 -88 23 -102 -5 -11 -16
-19 -24 -19 -8 0 -15 -7 -15 -15 0 -18 2 -18 34 -3 18 7 32 28 46 65 11 29 29
78 41 109 12 30 19 58 16 61 -13 12 -27 -12 -48 -77 -13 -38 -25 -67 -28 -65
-3 3 -14 35 -26 72 -19 62 -36 85 -48 66z"/>
<path d="M2320 615 c0 -69 3 -85 15 -85 12 0 15 16 15 85 0 69 -3 85 -15 85
-12 0 -15 -16 -15 -85z"/>
<path d="M830 550 c0 -13 7 -20 20 -20 13 0 20 7 20 20 0 13 -7 20 -20 20 -13
0 -20 -7 -20 -20z"/>
</g>
</svg>
